<?xml version="1.0" encoding="UTF-8"?>
<svg version="1.1" xmlns="http://www.w3.org/2000/svg" width="200" height="170">
<path d="M0 0 C1.27715378 -0.00571014 2.55430756 -0.01142029 3.87016296 -0.01730347 C5.27815237 -0.01854865 6.68614188 -0.01967378 8.09413147 -0.02069092 C9.58265302 -0.02532216 11.07117338 -0.03034723 12.55969238 -0.03573608 C16.59686006 -0.04882948 20.63401112 -0.05529863 24.6711967 -0.05974674 C27.19447155 -0.0626814 29.7177419 -0.06678687 32.24101448 -0.07125092 C40.13899048 -0.08491554 48.03695614 -0.09458821 55.93494314 -0.09845281 C65.04670991 -0.10293621 74.15832687 -0.12050147 83.27004808 -0.1494534 C90.31817047 -0.17107018 97.3662507 -0.18115702 104.41440588 -0.18249393 C108.6220826 -0.18354162 112.82961829 -0.18944235 117.03726006 -0.20731354 C120.99438028 -0.223795 124.95125344 -0.22594946 128.90839577 -0.21717453 C130.35880063 -0.21640429 131.80921879 -0.22074521 133.25959015 -0.23063278 C135.24308799 -0.24335973 137.22668518 -0.23568106 139.21020508 -0.22705078 C140.3190805 -0.22851734 141.42795591 -0.2299839 142.57043362 -0.2314949 C146.12698295 0.19547183 148.5735418 1.37970486 151.66859436 3.14044189 C151.66859436 3.80044189 151.66859436 4.46044189 151.66859436 5.14044189 C152.98859436 4.48044189 154.30859436 3.82044189 155.66859436 3.14044189 C155.33859436 4.46044189 155.00859436 5.78044189 154.66859436 7.14044189 C156.31859436 7.14044189 157.96859436 7.14044189 159.66859436 7.14044189 C159.91609436 8.10981689 160.16359436 9.07919189 160.41859436 10.07794189 C160.83109436 11.08856689 161.24359436 12.09919189 161.66859436 13.14044189 C163.70102984 14.10921247 163.70102984 14.10921247 165.66859436 14.14044189 C165.66859436 16.45044189 165.66859436 18.76044189 165.66859436 21.14044189 C166.65859436 20.64544189 166.65859436 20.64544189 167.66859436 20.14044189 C167.64796936 21.21294189 167.62734436 22.28544189 167.60609436 23.39044189 C167.50512517 26.88491946 167.50512517 26.88491946 168.23109436 29.14044189 C168.66859436 31.14044189 168.66859436 31.14044189 168.16859436 34.26544189 C167.64005667 38.36160898 167.99013022 41.7864203 168.48109436 45.85528564 C168.69490853 48.4611458 168.21853204 50.59698013 167.66859436 53.14044189 C167.88515686 54.65637939 167.88515686 54.65637939 168.10609436 56.20294189 C169.02107417 62.60780056 169.15273525 69.11280721 168.12953186 75.51153564 C167.62378863 79.4931921 167.81311646 83.22839643 168.16859436 87.20294189 C168.59782594 92.02951398 168.5882502 96.35680572 167.66859436 101.14044189 C167.9808916 102.47885862 168.31690368 103.81183264 168.66859436 105.14044189 C168.76657595 107.81316197 168.71107435 110.46420259 168.66859436 113.14044189 C168.66859436 114.13044189 168.66859436 115.12044189 168.66859436 116.14044189 C168.54104293 117.66291752 168.39376829 119.18381761 168.23109436 120.70294189 C168.10927795 121.88050049 168.10927795 121.88050049 167.98500061 123.08184814 C167.66859436 125.14044189 167.66859436 125.14044189 166.66859436 127.14044189 C167.32859436 127.47044189 167.98859436 127.80044189 168.66859436 128.14044189 C168.5848053 128.88809814 168.50101624 129.63575439 168.41468811 130.40606689 C168.31285217 131.39091064 168.21101624 132.37575439 168.10609436 133.39044189 C168.0016803 134.36497314 167.89726624 135.33950439 167.78968811 136.34356689 C167.67884968 138.9035771 167.89121344 140.72192348 168.66859436 143.14044189 C168.33859436 143.14044189 168.00859436 143.14044189 167.66859436 143.14044189 C167.66859436 146.11044189 167.66859436 149.08044189 167.66859436 152.14044189 C167.00859436 151.81044189 166.34859436 151.48044189 165.66859436 151.14044189 C163.46809941 154.22113482 161.76780701 156.83113188 160.60609436 160.45294189 C160.29671936 161.33981689 159.98734436 162.22669189 159.66859436 163.14044189 C158.67859436 163.47044189 157.68859436 163.80044189 156.66859436 164.14044189 C155.0014909 165.64029799 155.0014909 165.64029799 153.66859436 167.14044189 C152.34859436 166.48044189 151.02859436 165.82044189 149.66859436 165.14044189 C149.99859436 166.46044189 150.32859436 167.78044189 150.66859436 169.14044189 C149.78171936 168.95481689 148.89484436 168.76919189 147.98109436 168.57794189 C144.71301361 168.14630859 142.82492576 168.37060497 139.66859436 169.14044189 C133.07768527 170.27680553 133.07768527 170.27680553 129.66859436 169.14044189 C129.00859436 169.47044189 128.34859436 169.80044189 127.66859436 170.14044189 C125.17938235 170.21255116 122.71905292 170.23336848 120.23109436 170.20294189 C119.54982483 170.19843018 118.8685553 170.19391846 118.16664124 170.18927002 C116.33392974 170.17670491 114.50125668 170.15882981 112.66859436 170.14044189 C111.67859436 170.14044189 110.68859436 170.14044189 109.66859436 170.14044189 C108.25077828 169.96184103 106.83417797 169.77345082 105.41859436 169.57794189 C101.31342352 169.09811673 97.75428081 169.43330385 93.66859436 170.14044189 C90.79359436 170.26544189 90.79359436 170.26544189 88.66859436 170.14044189 C88.33859436 169.81044189 88.00859436 169.48044189 87.66859436 169.14044189 C86.84359436 169.30544189 86.01859436 169.47044189 85.16859436 169.64044189 C84.34359436 169.80544189 83.51859436 169.97044189 82.66859436 170.14044189 C82.33859436 169.81044189 82.00859436 169.48044189 81.66859436 169.14044189 C79.39294727 169.32176836 77.15461148 169.66036127 74.89515686 169.98419189 C72.66859436 170.14044189 72.66859436 170.14044189 69.66859436 169.14044189 C67.47550144 169.23548186 67.47550144 169.23548186 65.16859436 169.57794189 C56.43203522 170.72825551 56.43203522 170.72825551 52.98109436 169.57794189 C50.09787967 169.03246885 47.56888806 169.52515659 44.69203186 169.95294189 C41.91831511 170.20996584 39.39591591 169.63631854 36.66859436 169.14044189 C35.32695357 169.43858429 33.99008263 169.76287382 32.66859436 170.14044189 C32.00859436 169.81044189 31.34859436 169.48044189 30.66859436 169.14044189 C28.6837683 169.38419246 26.69916016 169.62980606 24.71546936 169.88262939 C18.05724025 170.44601801 11.34513088 170.20232534 4.66859436 170.14044189 C3.34859436 170.14044189 2.02859436 170.14044189 0.66859436 170.14044189 C-0.66708585 169.81664063 -2.00063575 169.48386638 -3.33140564 169.14044189 C-4.32140564 169.14044189 -5.31140564 169.14044189 -6.33140564 169.14044189 C-7.81640564 168.15044189 -7.81640564 168.15044189 -9.33140564 167.14044189 C-9.66140564 167.80044189 -9.99140564 168.46044189 -10.33140564 169.14044189 C-10.99140564 168.15044189 -11.65140564 167.16044189 -12.33140564 166.14044189 C-12.66140564 167.13044189 -12.99140564 168.12044189 -13.33140564 169.14044189 C-16.33140564 167.14044189 -16.33140564 167.14044189 -17.20640564 165.14044189 C-18.73325812 162.42603748 -20.43654496 162.05460843 -23.33140564 161.14044189 C-23.33140564 159.82044189 -23.33140564 158.50044189 -23.33140564 157.14044189 C-23.99140564 157.14044189 -24.65140564 157.14044189 -25.33140564 157.14044189 C-25.33140564 156.48044189 -25.33140564 155.82044189 -25.33140564 155.14044189 C-26.65140564 154.81044189 -27.97140564 154.48044189 -29.33140564 154.14044189 C-29.00140564 153.15044189 -28.67140564 152.16044189 -28.33140564 151.14044189 C-28.99140564 150.81044189 -29.65140564 150.48044189 -30.33140564 150.14044189 C-30.33140564 149.15044189 -30.33140564 148.16044189 -30.33140564 147.14044189 C-30.66140564 146.15044189 -30.99140564 145.16044189 -31.33140564 144.14044189 C-31.33140564 142.82044189 -31.33140564 141.50044189 -31.33140564 140.14044189 C-31.33336294 138.6164496 -31.33563246 137.09245769 -31.33813477 135.56846619 C-31.35821038 122.89201204 -31.37338104 110.21556232 -31.38321781 97.53909588 C-31.38844153 91.03226231 -31.39553472 84.52544179 -31.40684509 78.01861572 C-31.4177145 71.72463159 -31.42369063 65.43066004 -31.42628288 59.13666725 C-31.42812863 56.73932509 -31.43173289 54.34198362 -31.4371357 51.94464684 C-31.44440073 48.58891689 -31.44539431 45.23323899 -31.44493103 41.87750244 C-31.44852631 40.88972305 -31.45212158 39.90194366 -31.45582581 38.88423157 C-31.4415082 29.29185235 -30.76228924 22.08495061 -25.20640564 14.07794189 C-23.15206049 11.44028457 -23.15206049 11.44028457 -23.33140564 9.14044189 C-20.63247263 7.23531271 -18.24725762 6.1145502 -15.08140564 5.14044189 C-14.17390564 4.81044189 -13.26640564 4.48044189 -12.33140564 4.14044189 C-12.00140564 3.15044189 -11.67140564 2.16044189 -11.33140564 1.14044189 C-7.49538416 0.24496543 -3.93538349 0.01056063 0 0 Z M157.66859436 160.14044189 C157.33859436 160.80044189 157.00859436 161.46044189 156.66859436 162.14044189 C157.32859436 162.14044189 157.98859436 162.14044189 158.66859436 162.14044189 C158.33859436 161.48044189 158.00859436 160.82044189 157.66859436 160.14044189 Z M153.66859436 163.14044189 C153.99859436 163.80044189 154.32859436 164.46044189 154.66859436 165.14044189 C154.99859436 164.48044189 155.32859436 163.82044189 155.66859436 163.14044189 C155.00859436 163.14044189 154.34859436 163.14044189 153.66859436 163.14044189 Z " fill="#FEFBFB" transform="translate(31.331405639648438,-0.14044189453125)"/>
<path d="M0 0 C0 4.01094227 -1.76100999 5.74328725 -4 9 C-4.96920684 11.90762052 -5.13433079 13.78464051 -5.15390015 16.81117249 C-5.16250061 17.80212921 -5.17110107 18.79308594 -5.17996216 19.81407166 C-5.18422211 20.90031326 -5.18848206 21.98655487 -5.19287109 23.10571289 C-5.20104858 24.25076294 -5.20922607 25.39581299 -5.21765137 26.57556152 C-5.24251367 30.37458777 -5.25902571 34.17357657 -5.2734375 37.97265625 C-5.27876118 39.27029844 -5.28408485 40.56794064 -5.28956985 41.90490532 C-5.31080328 47.36169494 -5.3299315 52.8184724 -5.34119225 58.2752924 C-5.35740201 66.07762921 -5.39050582 73.87946572 -5.44759309 81.68161398 C-5.48641621 87.17647732 -5.50583979 92.67120759 -5.51111281 98.16620439 C-5.51475115 101.44308768 -5.52914284 104.71931758 -5.55921555 107.9960804 C-5.59092178 111.66061187 -5.59089437 115.3238921 -5.58349609 118.98852539 C-5.6081041 120.59663338 -5.6081041 120.59663338 -5.63320923 122.23722839 C-5.56333347 130.72713324 -3.34542599 137.40366706 2.5 143.6875 C3.7375 144.8321875 3.7375 144.8321875 5 146 C5.83302208 147.17319509 6.64463395 148.3618019 7.4375 149.5625 C10.41782266 153.87785678 14.01999709 156.33999903 19 158 C20.75344297 158.10064444 22.51044009 158.14360153 24.26673889 158.15390015 C25.35866547 158.16250061 26.45059204 158.17110107 27.5756073 158.17996216 C28.77405777 158.18422211 29.97250824 158.18848206 31.20727539 158.19287109 C33.10041473 158.20513733 33.10041473 158.20513733 35.03179932 158.21765137 C39.22039663 158.24384952 43.4090038 158.25918168 47.59765625 158.2734375 C49.04213403 158.27879901 50.48661174 158.28417653 51.9310894 158.28956985 C57.94375398 158.31119971 63.9564159 158.32993282 69.96910954 158.34119225 C78.57018243 158.35740688 87.17080182 158.39052226 95.77170378 158.44759309 C101.82707208 158.4863941 107.88231964 158.50583717 113.93780893 158.51111281 C117.5499888 158.51475386 121.16168474 158.52663964 124.77372932 158.55921555 C128.81174418 158.59510987 132.84879508 158.59089972 136.88696289 158.58349609 C138.66338417 158.6081041 138.66338417 158.6081041 140.47569275 158.63320923 C147.94129151 158.57734489 153.82501846 157.39318359 160 153 C161.46732327 151.28840684 162.62459031 149.60358981 163.79296875 147.6796875 C165.16795032 145.76628272 166.50722603 144.86248277 168.5 143.625 C172.90668623 140.66785984 175.09043468 136.90024585 177 132 C177.66991846 128.00502204 177.6648796 124.10151592 177.61523438 120.05786133 C177.62355789 118.3147039 177.62355789 118.3147039 177.63204956 116.53633118 C177.64380363 112.717804 177.6196156 108.90047436 177.59375 105.08203125 C177.59203804 102.41882134 177.59200253 99.75565788 177.59387207 97.092453 C177.59381865 91.52185686 177.57415119 85.95160169 177.54199219 80.38110352 C177.50505161 73.95130402 177.49632569 67.52194978 177.5032897 61.092058 C177.50960411 54.88819706 177.49882663 48.68448787 177.47932434 42.48065758 C177.47229651 39.84804718 177.46916954 37.21542337 177.47001648 34.58280373 C177.4682186 30.90627388 177.44683777 27.23037568 177.41992188 23.55395508 C177.42285248 22.46757751 177.42578308 21.38119995 177.42880249 20.26190186 C177.36535604 14.64418895 176.91078514 10.95605798 174 6 C174.33 5.34 174.66 4.68 175 4 C175.66 4 176.32 4 177 4 C177.474375 4.825 177.94875 5.65 178.4375 6.5 C178.953125 7.325 179.46875 8.15 180 9 C180.99 9 181.98 9 183 9 C183 11.31 183 13.62 183 16 C183.66 15.67 184.32 15.34 185 15 C184.979375 16.0725 184.95875 17.145 184.9375 18.25 C184.83653081 21.74447757 184.83653081 21.74447757 185.5625 24 C186 26 186 26 185.5 29.125 C184.97146231 33.22116709 185.32153586 36.64597841 185.8125 40.71484375 C186.02631417 43.32070391 185.54993768 45.45653823 185 48 C185.2165625 49.5159375 185.2165625 49.5159375 185.4375 51.0625 C186.35247981 57.46735867 186.48414089 63.97236532 185.4609375 70.37109375 C184.95519427 74.35275021 185.1445221 78.08795454 185.5 82.0625 C185.92923158 86.88907208 185.91965584 91.21636382 185 96 C185.31229724 97.33841672 185.64830932 98.67139075 186 100 C186.09798159 102.67272007 186.04247999 105.3237607 186 108 C186 108.99 186 109.98 186 111 C185.87244857 112.52247562 185.72517393 114.04337572 185.5625 115.5625 C185.44068359 116.74005859 185.44068359 116.74005859 185.31640625 117.94140625 C185 120 185 120 184 122 C184.66 122.33 185.32 122.66 186 123 C185.91621094 123.74765625 185.83242187 124.4953125 185.74609375 125.265625 C185.59333984 126.74289063 185.59333984 126.74289063 185.4375 128.25 C185.33308594 129.22453125 185.22867188 130.1990625 185.12109375 131.203125 C185.01025532 133.7631352 185.22261908 135.58148159 186 138 C185.67 138 185.34 138 185 138 C185 140.97 185 143.94 185 147 C184.34 146.67 183.68 146.34 183 146 C180.79950505 149.08069293 179.09921265 151.69068998 177.9375 155.3125 C177.628125 156.199375 177.31875 157.08625 177 158 C176.01 158.33 175.02 158.66 174 159 C172.33289654 160.49985609 172.33289654 160.49985609 171 162 C169.68 161.34 168.36 160.68 167 160 C167.33 161.32 167.66 162.64 168 164 C167.113125 163.814375 166.22625 163.62875 165.3125 163.4375 C162.04441925 163.00586669 160.1563314 163.23016307 157 164 C150.40909091 165.13636364 150.40909091 165.13636364 147 164 C146.34 164.33 145.68 164.66 145 165 C142.51078799 165.07210927 140.05045856 165.09292659 137.5625 165.0625 C136.88123047 165.05798828 136.19996094 165.05347656 135.49804688 165.04882812 C133.66533538 165.03626301 131.83266232 165.01838792 130 165 C129.01 165 128.02 165 127 165 C125.58218392 164.82139914 124.16558361 164.63300893 122.75 164.4375 C118.64482916 163.95767484 115.08568645 164.29286196 111 165 C108.125 165.125 108.125 165.125 106 165 C105.67 164.67 105.34 164.34 105 164 C104.175 164.165 103.35 164.33 102.5 164.5 C101.675 164.665 100.85 164.83 100 165 C99.67 164.67 99.34 164.34 99 164 C96.72435291 164.18132646 94.48601712 164.51991937 92.2265625 164.84375 C90 165 90 165 87 164 C84.80690708 164.09503996 84.80690708 164.09503996 82.5 164.4375 C73.76344086 165.58781362 73.76344086 165.58781362 70.3125 164.4375 C67.42928531 163.89202695 64.9002937 164.38471469 62.0234375 164.8125 C59.24972075 165.06952395 56.72732155 164.49587664 54 164 C52.65835921 164.2981424 51.32148827 164.62243192 50 165 C49.34 164.67 48.68 164.34 48 164 C46.01517394 164.24375057 44.0305658 164.48936416 42.046875 164.7421875 C35.38864589 165.30557612 28.67653652 165.06188345 22 165 C20.68 165 19.36 165 18 165 C16.66431979 164.67619874 15.33076989 164.34342449 14 164 C13.01 164 12.02 164 11 164 C9.515 163.01 9.515 163.01 8 162 C7.67 162.66 7.34 163.32 7 164 C6.34 163.01 5.68 162.02 5 161 C4.67 161.99 4.34 162.98 4 164 C1 162 1 162 0.125 160 C-1.40185248 157.28559559 -3.10513932 156.91416653 -6 156 C-6 154.68 -6 153.36 -6 152 C-6.66 152 -7.32 152 -8 152 C-8 151.34 -8 150.68 -8 150 C-9.32 149.67 -10.64 149.34 -12 149 C-11.67 148.01 -11.34 147.02 -11 146 C-11.66 145.67 -12.32 145.34 -13 145 C-13 144.01 -13 143.02 -13 142 C-13.33 141.01 -13.66 140.02 -14 139 C-14 137.68 -14 136.36 -14 135 C-14.0019573 133.4760077 -14.00422682 131.95201579 -14.00672913 130.42802429 C-14.02680474 117.75157015 -14.0419754 105.07512042 -14.05181217 92.39865398 C-14.05703589 85.89182041 -14.06412908 79.38499989 -14.07543945 72.87817383 C-14.08630886 66.5841897 -14.09228499 60.29021815 -14.09487724 53.99622536 C-14.09672299 51.5988832 -14.10032725 49.20154172 -14.10573006 46.80420494 C-14.11299509 43.448475 -14.11398867 40.0927971 -14.11352539 36.73706055 C-14.11712067 35.74928116 -14.12071594 34.76150177 -14.12442017 33.74378967 C-14.11010256 24.15141046 -13.4308836 16.94450871 -7.875 8.9375 C-5.82065485 6.29984267 -5.82065485 6.29984267 -6 4 C-4.36368108 2.95107762 -2.69514137 1.95093297 -1 1 C-0.67 0.67 -0.34 0.34 0 0 Z M175 155 C174.67 155.66 174.34 156.32 174 157 C174.66 157 175.32 157 176 157 C175.67 156.34 175.34 155.68 175 155 Z M171 158 C171.33 158.66 171.66 159.32 172 160 C172.33 159.34 172.66 158.68 173 158 C172.34 158 171.68 158 171 158 Z " fill="#131313" transform="translate(14,5)"/>
<path d="M0 0 C3.1582579 2.794795 5.27900627 6.27986734 7.55078125 9.7890625 C8.22144371 10.81481888 8.22144371 10.81481888 8.90565491 11.86129761 C10.37776786 14.11381635 11.84508932 16.36941574 13.3125 18.625 C15.38204378 21.79562644 17.45436348 24.96443203 19.52734375 28.1328125 C20.32286652 29.34949615 20.32286652 29.34949615 21.13446045 30.59075928 C24.85079542 36.26690927 28.60267698 41.91822959 32.37890625 47.5546875 C33.14081017 48.6925621 33.14081017 48.6925621 33.91810608 49.85342407 C35.88726389 52.79276627 37.85732166 55.73146885 39.83389282 58.66583252 C41.19160253 60.68156687 42.54530187 62.69994354 43.8984375 64.71875 C44.30151627 65.3140451 44.70459503 65.90934021 45.11988831 66.52267456 C46.78538886 69.01314397 48.04652377 71.13957132 49 74 C42.96928942 72.21236177 37.38012695 69.51301397 31.6875 66.875 C30.09748169 66.14555176 30.09748169 66.14555176 28.4753418 65.40136719 C23.56277956 63.14150695 18.66874937 60.85558066 13.8203125 58.4609375 C12.66656128 57.89656982 12.66656128 57.89656982 11.48950195 57.32080078 C10.07581698 56.62545231 8.66766543 55.91869614 7.26635742 55.19873047 C3.28621305 53.24720875 1.23217804 52.85232934 -3 54 C-4.5529933 54.592704 -6.08775539 55.23486503 -7.60327148 55.91772461 C-8.48446152 56.31160873 -9.36565155 56.70549286 -10.27354431 57.11131287 C-11.21323563 57.53735306 -12.15292694 57.96339325 -13.12109375 58.40234375 C-14.09861099 58.84010635 -15.07612823 59.27786896 -16.08326721 59.72889709 C-19.20354402 61.12692491 -22.32071305 62.53171099 -25.4375 63.9375 C-28.55105907 65.33892649 -31.66527728 66.73882847 -34.78102112 68.13539124 C-36.71787447 69.00382007 -38.65343254 69.87514516 -40.58750916 70.7497406 C-45.00477251 72.73292522 -49.35754575 74.58991998 -54 76 C-49.98114233 69.8490211 -45.76925057 63.8873161 -41.375 58 C-36.31662934 51.18033398 -31.35168265 44.30626256 -26.47680664 37.35449219 C-22.80170641 32.11883336 -19.06849527 26.92787655 -15.3125 21.75 C-10.10564626 14.56848032 -5.00673951 7.32251825 0 0 Z " fill="#202020" transform="translate(102,38)"/>
<path d="M0 0 C1.1872467 0.48764832 2.37449341 0.97529663 3.59771729 1.47772217 C10.12300087 3.63542699 16.63571953 3.40481774 23.43652344 3.35644531 C24.87799707 3.35723749 26.31947048 3.35933875 27.76094055 3.36264038 C31.65121856 3.36774518 35.54122906 3.35429954 39.4314642 3.33711338 C43.51169592 3.32200793 47.59192517 3.32324983 51.67218018 3.32244873 C58.51799042 3.31876464 65.36369988 3.3038377 72.20947266 3.28125 C80.99179213 3.25233134 89.77403075 3.24202066 98.55639267 3.2375679 C106.11888267 3.23358617 113.68135517 3.22108913 121.24383259 3.20722103 C123.67010012 3.20312799 126.09636705 3.20019946 128.52263641 3.19742584 C132.33447849 3.19252457 136.14627186 3.18230725 139.95808983 3.16798782 C141.35569252 3.16347499 142.75330175 3.16062857 144.15091133 3.15958023 C146.0601511 3.15782701 147.96938105 3.14929986 149.87860107 3.14044189 C150.94633129 3.13746723 152.01406151 3.13449257 153.11414719 3.13142776 C155.84842293 3.00690314 158.33797319 2.61756843 161 2 C157.50774537 8.25695621 152.80825298 11.73058234 146 14 C144.23747193 14.09658886 142.47150873 14.13494647 140.7063446 14.14044189 C139.05978378 14.14900711 139.05978378 14.14900711 137.37995911 14.15774536 C136.17522446 14.15886322 134.97048981 14.15998108 133.72924805 14.16113281 C132.46072998 14.16609772 131.19221191 14.17106262 129.88525391 14.17617798 C126.40373529 14.1892941 122.92223594 14.19574545 119.44069648 14.20018864 C117.26484719 14.20312078 115.08900315 14.20722587 112.91315651 14.21169281 C106.10333521 14.225366 99.29352594 14.23503339 92.48369187 14.2388947 C84.6266858 14.24337443 76.76985378 14.26091898 68.91290063 14.2898953 C62.83720917 14.31152335 56.76156663 14.32159959 50.68583709 14.32293582 C47.05827346 14.3239831 43.43087349 14.32987422 39.80335045 14.34775543 C35.755105 14.36732236 31.70722307 14.3629427 27.65893555 14.35644531 C26.46027359 14.3656601 25.26161163 14.37487488 24.02662659 14.3843689 C14.93703055 14.33860604 9.68880958 12.39152915 3 6 C1.125 2.6875 1.125 2.6875 0 0 Z " fill="#C5C2C2" transform="translate(18,150)"/>
<path d="M0 0 C0.99 0 1.98 0 3 0 C3.66 1.98 4.32 3.96 5 6 C6.32 5.67 7.64 5.34 9 5 C9.30292969 5.66386719 9.60585937 6.32773438 9.91796875 7.01171875 C12.40268155 12.2487288 14.70465801 16.02680866 19 20 C19.83302208 21.17319509 20.64463395 22.3618019 21.4375 23.5625 C24.41782266 27.87785678 28.01999709 30.33999903 33 32 C34.70214111 32.11534189 36.40821409 32.17641041 38.11401367 32.20532227 C39.67529243 32.2352401 39.67529243 32.2352401 41.26811218 32.26576233 C42.39006485 32.28247482 43.51201752 32.29918732 44.66796875 32.31640625 C45.81791824 32.33718735 46.96786774 32.35796844 48.15266418 32.37937927 C51.83088125 32.44483342 55.50917048 32.50374074 59.1875 32.5625 C61.67904396 32.60568913 64.17058059 32.64930355 66.66210938 32.69335938 C72.77466301 32.80051061 78.88728864 32.90228483 85 33 C84.505 33.99 84.505 33.99 84 35 C84.66 35.33 85.32 35.66 86 36 C86 36.99 86 37.98 86 39 C85.505 38.814375 85.01 38.62875 84.5 38.4375 C81.53873238 37.91927817 78.97445118 38.37368756 76.0234375 38.8125 C73.24972075 39.06952395 70.72732155 38.49587664 68 38 C66.65835921 38.2981424 65.32148827 38.62243192 64 39 C63.01 38.505 63.01 38.505 62 38 C60.01517394 38.24375057 58.0305658 38.48936416 56.046875 38.7421875 C49.38864589 39.30557612 42.67653652 39.06188345 36 39 C34.68 39 33.36 39 32 39 C30.66431979 38.67619874 29.33076989 38.34342449 28 38 C27.01 38 26.02 38 25 38 C24.01 37.34 23.02 36.68 22 36 C21.67 36.66 21.34 37.32 21 38 C20.34 37.01 19.68 36.02 19 35 C18.67 35.99 18.34 36.98 18 38 C15 36 15 36 14.125 34 C12.59814752 31.28559559 10.89486068 30.91416653 8 30 C8 28.68 8 27.36 8 26 C7.34 26 6.68 26 6 26 C6 25.34 6 24.68 6 24 C4.68 23.67 3.36 23.34 2 23 C2.33 22.01 2.66 21.02 3 20 C2.34 19.67 1.68 19.34 1 19 C1 18.01 1 17.02 1 16 C0.67 15.01 0.34 14.02 0 13 C0 8.66666667 0 4.33333333 0 0 Z " fill="#151515" transform="translate(0,131)"/>
<path d="M0 0 C4.94600547 0.61491179 9.78517692 0.67784743 14.76342773 0.62890625 C15.6559877 0.62511963 16.54854767 0.62133301 17.46815491 0.61743164 C20.28668316 0.60532693 23.10510341 0.58667788 25.92358398 0.56640625 C29.66186214 0.53986899 33.40009131 0.51988577 37.13842773 0.50390625 C37.99669662 0.49560791 38.85496552 0.48730957 39.73924255 0.47875977 C45.76054234 0.45363543 45.76054234 0.45363543 47.98608398 1.56640625 C49.99329321 1.27966207 51.99239367 0.93560816 53.98608398 0.56640625 C59.3929495 -0.29182637 63.54613503 -0.42267538 68.98608398 0.56640625 C70.28545898 0.75203125 71.58483398 0.93765625 72.92358398 1.12890625 C73.93420898 1.27328125 74.94483398 1.41765625 75.98608398 1.56640625 C75.98608398 0.90640625 75.98608398 0.24640625 75.98608398 -0.43359375 C77.62577148 -0.21703125 77.62577148 -0.21703125 79.29858398 0.00390625 C84.51534199 0.65951318 89.74843146 1.11388848 94.98608398 1.56640625 C94.65608398 2.55640625 94.32608398 3.54640625 93.98608398 4.56640625 C90.92255199 5.58758358 88.8591073 5.68972972 85.65205383 5.68666077 C83.99248657 5.68872276 83.99248657 5.68872276 82.2993927 5.69082642 C81.08523178 5.68723114 79.87107086 5.68363586 78.62011719 5.67993164 C77.34196136 5.68007767 76.06380554 5.68022369 74.74691772 5.68037415 C71.24099482 5.68066137 67.73510603 5.67477669 64.22919106 5.66780019 C60.56565285 5.66155424 56.90211388 5.66096187 53.23857117 5.65977478 C46.30067553 5.65666514 39.36279562 5.64845667 32.42490691 5.63842529 C24.52656174 5.62725279 16.62821582 5.62175083 8.72986472 5.61672986 C-7.51807141 5.60627377 -23.76599171 5.5886814 -40.01391602 5.56640625 C-40.01391602 4.90640625 -40.01391602 4.24640625 -40.01391602 3.56640625 C-40.67391602 2.90640625 -41.33391602 2.24640625 -42.01391602 1.56640625 C-37.58952579 0.70821983 -33.43916894 0.46082318 -28.93579102 0.50390625 C-28.2831427 0.50769287 -27.63049438 0.51147949 -26.95806885 0.51538086 C-24.89328086 0.52750157 -22.82863914 0.54614495 -20.76391602 0.56640625 C-18.02954509 0.59296582 -15.29524197 0.61294758 -12.56079102 0.62890625 C-10.74853027 0.64630859 -10.74853027 0.64630859 -8.8996582 0.6640625 C-5.46082282 0.54768905 -3.49155225 -0.50090619 0 0 Z " fill="#DEDBDB" transform="translate(73.013916015625,158.43359375)"/>
<path d="M0 0 C6.78720128 3.27706079 13.60510434 6.45558177 20.5 9.5 C21.2839917 9.84619385 22.0679834 10.1923877 22.87573242 10.54907227 C24.68714245 11.34713745 26.49968416 12.14263332 28.3125 12.9375 C25.04949299 13.83212576 22.56582854 13.93562882 19.1875 13.5625 C18.31867188 13.47226563 17.44984375 13.38203125 16.5546875 13.2890625 C14.3125 12.9375 14.3125 12.9375 12.3125 11.9375 C12.3125 11.2775 12.3125 10.6175 12.3125 9.9375 C11.66023438 9.75574219 11.00796875 9.57398437 10.3359375 9.38671875 C2.82759054 7.22723843 2.82759054 7.22723843 -0.6875 5.25 C-5.1435782 3.30046579 -8.9035337 3.10199039 -13.6875 3.9375 C-17.88518394 5.59885248 -21.75657169 7.72765274 -25.6875 9.9375 C-31.64562269 13.11459143 -37.05063967 15.58554697 -43.6875 16.9375 C-43.6875 17.5975 -43.6875 18.2575 -43.6875 18.9375 C-46.91541555 21.0894437 -47.97150809 21.13836443 -51.6875 20.9375 C-51.501875 19.82375 -51.31625 18.71 -51.125 17.5625 C-50.37069343 14.11181139 -50.37069343 14.11181139 -51.6875 11.9375 C-47.72233516 10.15915104 -43.75708071 8.38100207 -39.79174805 6.60302734 C-38.44667214 5.99989036 -37.10161948 5.39670154 -35.7565918 4.79345703 C-35.1066626 4.50196777 -34.4567334 4.21047852 -33.78710938 3.91015625 C-33.1436557 3.62136597 -32.50020203 3.33257568 -31.83724976 3.03503418 C-30.55649882 2.46137653 -29.2749461 1.88950546 -27.99258423 1.31945801 C-25.28000233 0.11220734 -22.58359848 -1.11305163 -19.91357422 -2.41210938 C-11.87111776 -6.28742947 -7.6515212 -3.75464692 0 0 Z " fill="#B2B1B1" transform="translate(114.6875,95.0625)"/>
<path d="M0 0 C0.66064453 0.31259766 1.32128906 0.62519531 2.00195312 0.94726562 C2.67548828 1.27275391 3.34902344 1.59824219 4.04296875 1.93359375 C4.73583984 2.26294922 5.42871094 2.59230469 6.14257812 2.93164062 C7.84091823 3.73981626 9.53602644 4.55477752 11.23046875 5.37109375 C11.23046875 5.70109375 11.23046875 6.03109375 11.23046875 6.37109375 C4.64763103 5.48494252 4.64763103 5.48494252 2.3125 4.84765625 C-0.11294531 4.29248866 -2.34500535 4.2023496 -4.83203125 4.18359375 C-5.68925781 4.16941406 -6.54648438 4.15523438 -7.4296875 4.140625 C-10.04151434 4.2126329 -10.04151434 4.2126329 -12.76953125 6.37109375 C-13.88328125 6.59796875 -14.99703125 6.82484375 -16.14453125 7.05859375 C-25.84069138 9.32638811 -34.72612005 15.69705949 -42.76953125 21.37109375 C-43.42953125 20.71109375 -44.08953125 20.05109375 -44.76953125 19.37109375 C-44.29515625 18.93796875 -43.82078125 18.50484375 -43.33203125 18.05859375 C-41.53266168 16.34799762 -41.53266168 16.34799762 -40.76953125 13.37109375 C-41.42953125 13.04109375 -42.08953125 12.71109375 -42.76953125 12.37109375 C-38.02660638 10.19929935 -33.2761275 8.04535782 -28.51782227 5.9074707 C-26.90072123 5.17793559 -25.28577932 4.44359451 -23.6730957 3.7043457 C-21.35270169 2.64169529 -19.02505548 1.59665146 -16.6953125 0.5546875 C-15.97741043 0.22141953 -15.25950836 -0.11184845 -14.51985168 -0.45521545 C-8.7382054 -3.00799957 -5.52285588 -2.64136585 0 0 Z " fill="#9C9A9A" transform="translate(109.76953125,92.62890625)"/>
<path d="M0 0 C0 4.01094227 -1.76100999 5.74328725 -4 9 C-5.05836661 12.17509982 -5.20243789 14.64282383 -5.31640625 17.98046875 C-5.35830078 19.14384766 -5.40019531 20.30722656 -5.44335938 21.50585938 C-5.48267578 22.72080078 -5.52199219 23.93574219 -5.5625 25.1875 C-5.60568359 26.41404297 -5.64886719 27.64058594 -5.69335938 28.90429688 C-5.7995309 31.93608381 -5.90157952 34.96795315 -6 38 C-6.66 38 -7.32 38 -8 38 C-8 36.35 -8 34.7 -8 33 C-8.66 33 -9.32 33 -10 33 C-9.67 34.98 -9.34 36.96 -9 39 C-9.99 39 -10.98 39 -12 39 C-12.33 39.66 -12.66 40.32 -13 41 C-14.48024859 29.22633041 -14.76869783 18.87253511 -7.875 8.9375 C-5.82065485 6.29984267 -5.82065485 6.29984267 -6 4 C-4.36368108 2.95107762 -2.69514137 1.95093297 -1 1 C-0.67 0.67 -0.34 0.34 0 0 Z " fill="#080808" transform="translate(14,5)"/>
<path d="M0 0 C1.47057839 0.00031709 2.94118001 0.01164091 4.41162109 0.03173828 C5.18565277 0.03456818 5.95968445 0.03739807 6.75717163 0.04031372 C9.23329016 0.05152325 11.70904909 0.07662875 14.18505859 0.10205078 C15.86213671 0.1120796 17.53922049 0.12120562 19.21630859 0.12939453 C23.33103082 0.15146504 27.44548371 0.18599977 31.56005859 0.22705078 C31.23005859 1.87705078 30.90005859 3.52705078 30.56005859 5.22705078 C28.90391202 5.60923845 27.23548835 5.9410018 25.56005859 6.22705078 C25.23005859 5.89705078 24.90005859 5.56705078 24.56005859 5.22705078 C22.2844115 5.40837724 20.04607571 5.74697015 17.78662109 6.07080078 C15.56005859 6.22705078 15.56005859 6.22705078 12.56005859 5.22705078 C10.36696567 5.32209074 10.36696567 5.32209074 8.06005859 5.66455078 C2.03346211 6.45805265 -0.36013209 5.83935963 -5.43994141 2.22705078 C-3.43994141 0.22705078 -3.43994141 0.22705078 0 0 Z " fill="#1D1D1D" transform="translate(88.43994140625,163.77294921875)"/>
<path d="M0 0 C1.80307617 0.00483398 1.80307617 0.00483398 3.64257812 0.00976562 C4.88845703 0.01814453 6.13433594 0.02652344 7.41796875 0.03515625 C8.68318359 0.03966797 9.94839844 0.04417969 11.25195312 0.04882812 C14.36983985 0.06059374 17.48763008 0.07703353 20.60546875 0.09765625 C20.27546875 0.75765625 19.94546875 1.41765625 19.60546875 2.09765625 C20.26546875 2.42765625 20.92546875 2.75765625 21.60546875 3.09765625 C21.60546875 4.08765625 21.60546875 5.07765625 21.60546875 6.09765625 C21.11046875 5.91203125 20.61546875 5.72640625 20.10546875 5.53515625 C17.14420113 5.01693442 14.57991993 5.47134381 11.62890625 5.91015625 C8.8551895 6.1671802 6.3327903 5.59353289 3.60546875 5.09765625 C2.26382796 5.39579865 0.92695702 5.72008817 -0.39453125 6.09765625 C-1.05453125 5.76765625 -1.71453125 5.43765625 -2.39453125 5.09765625 C-3.94066139 5.18417256 -5.48362512 5.33768261 -7.01953125 5.53515625 C-7.83679687 5.63699219 -8.6540625 5.73882812 -9.49609375 5.84375 C-10.12257812 5.92753906 -10.7490625 6.01132813 -11.39453125 6.09765625 C-11.39453125 4.43098958 -11.39453125 2.76432292 -11.39453125 1.09765625 C-7.53246051 0.18948827 -3.96304469 -0.0187822 0 0 Z " fill="#252525" transform="translate(64.39453125,163.90234375)"/>
<path d="M0 0 C1.31218457 0.67683829 2.60982496 1.38268789 3.890625 2.1171875 C7.06518192 3.88153288 10.43650816 4.98736899 13.8515625 6.20703125 C13.8515625 6.86703125 13.8515625 7.52703125 13.8515625 8.20703125 C15.10453125 8.31660156 16.3575 8.42617187 17.6484375 8.5390625 C19.29954444 8.69854442 20.95058275 8.85873798 22.6015625 9.01953125 C23.8390625 9.12491211 23.8390625 9.12491211 25.1015625 9.23242188 C32.64631886 9.99298199 32.64631886 9.99298199 35.8515625 13.20703125 C27.27422376 15.03199694 20.48374202 12.61279464 12.55859375 9.29296875 C7.73971648 7.35985492 2.79052183 5.80243392 -2.1484375 4.20703125 C-2.1484375 3.54703125 -2.1484375 2.88703125 -2.1484375 2.20703125 C-2.72078125 2.37589844 -3.293125 2.54476562 -3.8828125 2.71875 C-6.2073554 3.21972907 -8.03592721 3.17674866 -10.3984375 3.01953125 C-14.87620616 2.930716 -17.71973689 4.14981088 -21.51953125 6.4296875 C-22.05707031 6.68621094 -22.59460938 6.94273438 -23.1484375 7.20703125 C-23.8084375 6.87703125 -24.4684375 6.54703125 -25.1484375 6.20703125 C-23.7323776 5.41427977 -22.31556197 4.62287813 -20.8984375 3.83203125 C-19.71507813 3.17074219 -19.71507813 3.17074219 -18.5078125 2.49609375 C-17.72921875 2.07070312 -16.950625 1.6453125 -16.1484375 1.20703125 C-15.4884375 0.830625 -14.8284375 0.45421875 -14.1484375 0.06640625 C-9.76732618 -1.81610252 -4.44009719 -1.63879951 0 0 Z " fill="#E3E0E0" transform="translate(113.1484375,98.79296875)"/>
<path d="M0 0 C2.0625 0.4375 2.0625 0.4375 4 1 C-2.75 5 -2.75 5 -5 5 C-5 5.66 -5 6.32 -5 7 C-5.639375 7.103125 -6.27875 7.20625 -6.9375 7.3125 C-7.9584375 7.6528125 -7.9584375 7.6528125 -9 8 C-9.33 8.99 -9.66 9.98 -10 11 C-14.90578784 14.54782662 -20.07800268 15.57700019 -26 16 C-27.35384615 9.72307692 -27.35384615 9.72307692 -25.5625 6.0625 C-25.046875 5.381875 -24.53125 4.70125 -24 4 C-24.66 3.67 -25.32 3.34 -26 3 C-22.535 2.505 -22.535 2.505 -19 2 C-19.66 4.64 -20.32 7.28 -21 10 C-18.36 9.34 -15.72 8.68 -13 8 C-13 7.34 -13 6.68 -13 6 C-12.14535156 5.65066406 -11.29070312 5.30132812 -10.41015625 4.94140625 C-8.75306641 4.25884766 -8.75306641 4.25884766 -7.0625 3.5625 C-5.96035156 3.11003906 -4.85820313 2.65757813 -3.72265625 2.19140625 C-1.13431084 1.25575392 -1.13431084 1.25575392 0 0 Z " fill="#E9E7E7" transform="translate(84,106)"/>
<path d="M0 0 C7.59 0 15.18 0 23 0 C22 2 21 4 20 6 C18.824375 5.814375 17.64875 5.62875 16.4375 5.4375 C12.44527675 4.92965535 8.97658032 5.32473164 5 6 C3.33371045 6.03545297 1.66590197 6.05048188 0 6 C0 4.02 0 2.04 0 0 Z " fill="#292929" transform="translate(120,164)"/>
<path d="M0 0 C0.969375 0.495 1.93875 0.99 2.9375 1.5 C5.58132408 3.07331124 5.58132408 3.07331124 7 3 C7 7.62 7 12.24 7 17 C6.67 16.34 6.34 15.68 6 15 C4.68 15 3.36 15 2 15 C1.34 14.67 0.68 14.34 0 14 C-1.08562787 9.06532787 -0.90896604 4.94881513 0 0 Z " fill="#0B0B0B" transform="translate(1,84)"/>
<path d="M0 0 C-0.0721875 0.68707031 -0.144375 1.37414062 -0.21875 2.08203125 C-0.3115625 2.98308594 -0.404375 3.88414063 -0.5 4.8125 C-0.5928125 5.70582031 -0.685625 6.59914063 -0.78125 7.51953125 C-1.04392401 10.08305099 -1.04392401 10.08305099 -1 13 C-1.66 13 -2.32 13 -3 13 C-3.33 13.99 -3.66 14.98 -4 16 C-5.32 16 -6.64 16 -8 16 C-8.78316087 4.93132643 -8.78316087 4.93132643 -5.6875 1.25 C-3 0 -3 0 0 0 Z " fill="#0E0E0E" transform="translate(200,69)"/>
<path d="M0 0 C2.0625 0.1875 2.0625 0.1875 4 1 C4.33 1.99 4.66 2.98 5 4 C4.67 4.66 4.34 5.32 4 6 C3.01 6.33 2.02 6.66 1 7 C-0.66710346 8.49985609 -0.66710346 8.49985609 -2 10 C-3.32 9.34 -4.64 8.68 -6 8 C-5.67 9.32 -5.34 10.64 -5 12 C-7.475 11.01 -7.475 11.01 -10 10 C-9.34 9.67 -8.68 9.34 -8 9 C-8.33 7.68 -8.66 6.36 -9 5 C-7.88625 4.54625 -6.7725 4.0925 -5.625 3.625 C-2.03800992 2.27534014 -2.03800992 2.27534014 0 0 Z M2 3 C1.67 3.66 1.34 4.32 1 5 C1.66 5 2.32 5 3 5 C2.67 4.34 2.34 3.68 2 3 Z M-2 6 C-1.67 6.66 -1.34 7.32 -1 8 C-0.67 7.34 -0.34 6.68 0 6 C-0.66 6 -1.32 6 -2 6 Z " fill="#575757" transform="translate(187,157)"/>
<path d="M0 0 C20.13 0 40.26 0 61 0 C60.67 0.99 60.34 1.98 60 3 C59.01 3 58.02 3 57 3 C57 2.34 57 1.68 57 1 C38.19 1 19.38 1 0 1 C0 0.67 0 0.34 0 0 Z " fill="#DCD9D9" transform="translate(104,161)"/>
<path d="M0 0 C2.97 0 5.94 0 9 0 C8.67 0.66 8.34 1.32 8 2 C8.66 2.33 9.32 2.66 10 3 C10 3.99 10 4.98 10 6 C9.505 5.814375 9.01 5.62875 8.5 5.4375 C6.01475751 5.00258256 4.34866078 5.14469236 1.875 5.5 C-2 6 -2 6 -4 5 C-3.34 3.68 -2.68 2.36 -2 1 C-1.34 1.33 -0.68 1.66 0 2 C0 1.34 0 0.68 0 0 Z " fill="#3D3D3D" transform="translate(76,164)"/>
<path d="M0 0 C0.66 0 1.32 0 2 0 C3.35384615 6.4 3.35384615 6.4 1.5625 9.4375 C1.046875 9.953125 0.53125 10.46875 0 11 C-2.5 9.8125 -2.5 9.8125 -5 8 C-5.3125 5.3125 -5.3125 5.3125 -5 3 C-4.360625 2.87625 -3.72125 2.7525 -3.0625 2.625 C-2.0415625 2.315625 -2.0415625 2.315625 -1 2 C-0.67 1.34 -0.34 0.68 0 0 Z " fill="#262626" transform="translate(197,82)"/>
<path d="M0 0 C2.0625 0.4375 2.0625 0.4375 4 1 C-2.75 5 -2.75 5 -5 5 C-5 5.66 -5 6.32 -5 7 C-11.4 10.07692308 -11.4 10.07692308 -14.4375 9.6875 C-14.953125 9.460625 -15.46875 9.23375 -16 9 C-15.01 8.67 -14.02 8.34 -13 8 C-13 7.34 -13 6.68 -13 6 C-12.14535156 5.65066406 -11.29070312 5.30132812 -10.41015625 4.94140625 C-9.30542969 4.48636719 -8.20070313 4.03132813 -7.0625 3.5625 C-5.96035156 3.11003906 -4.85820313 2.65757813 -3.72265625 2.19140625 C-1.13431084 1.25575392 -1.13431084 1.25575392 0 0 Z " fill="#D6D4D4" transform="translate(84,106)"/>
<path d="M0 0 C3.3 0 6.6 0 10 0 C9.67 1.65 9.34 3.3 9 5 C7.34385343 5.38218767 5.67542976 5.71395102 4 6 C3.67 5.67 3.34 5.34 3 5 C1.33382885 4.95936168 -0.33388095 4.957279 -2 5 C-1.34 4.67 -0.68 4.34 0 4 C0 2.68 0 1.36 0 0 Z " fill="#151515" transform="translate(110,164)"/>
<path d="M0 0 C0 0.33 0 0.66 0 1 C-6.58283772 0.11384877 -6.58283772 0.11384877 -8.91796875 -0.5234375 C-11.34341406 -1.07860509 -13.5754741 -1.16874415 -16.0625 -1.1875 C-16.91972656 -1.20167969 -17.77695313 -1.21585937 -18.66015625 -1.23046875 C-21.27198309 -1.15846085 -21.27198309 -1.15846085 -24 1 C-26.1875 0.625 -26.1875 0.625 -28 0 C-19.13895711 -5.66122185 -9.21226533 -4.81550233 0 0 Z " fill="#A8A6A6" transform="translate(121,98)"/>
<path d="M0 0 C0 4.04016033 -1.73255996 5.69601595 -4 9 C-5.02930047 10.98507948 -6.03863929 12.98114251 -7 15 C-8.32 15 -9.64 15 -11 15 C-9.74243333 11.51750769 -8.2268108 8.93534151 -6 6 C-6 5.34 -6 4.68 -6 4 C-4.36368108 2.95107762 -2.69514137 1.95093297 -1 1 C-0.67 0.67 -0.34 0.34 0 0 Z " fill="#1F1F1F" transform="translate(14,5)"/>
<path d="M0 0 C-0.61277612 2.96175123 -1.25372522 4.38058783 -3 7 C-1.35 7 0.3 7 2 7 C0.8125 8.5 0.8125 8.5 -1 10 C-3.6875 10.1875 -3.6875 10.1875 -6 10 C-5.814375 8.88625 -5.62875 7.7725 -5.4375 6.625 C-4.68319343 3.17431139 -4.68319343 3.17431139 -6 1 C-4 0 -4 0 0 0 Z " fill="#BAB8B8" transform="translate(69,106)"/>
<path d="M0 0 C2.46313739 1.82748903 3.83428618 3.22976216 4.48828125 6.26953125 C4.72518293 8.51479346 4.90361349 10.74455578 5 13 C4.01 13 3.02 13 2 13 C1.67 13.66 1.34 14.32 1 15 C0.83105557 13.25021843 0.66493691 11.50016388 0.5 9.75 C0.4071875 8.77546875 0.314375 7.8009375 0.21875 6.796875 C0.04199832 4.53697847 0 2.26679807 0 0 Z " fill="#404040" transform="translate(0,31)"/>
<path d="M0 0 C1.91750286 0.08743331 3.83406665 0.1956189 5.75 0.3125 C6.81734375 0.37050781 7.8846875 0.42851563 8.984375 0.48828125 C12.1821068 1.03090154 13.62598691 1.85071145 16 4 C9.5589964 5.64451156 5.78217394 4.05498079 0 1 C0 0.67 0 0.34 0 0 Z " fill="#D2D0D0" transform="translate(133,108)"/>
<path d="M0 0 C-0.66 2.31 -1.32 4.62 -2 7 C-0.35 7 1.3 7 3 7 C1.8125 8.5 1.8125 8.5 0 10 C-2.6875 10.1875 -2.6875 10.1875 -5 10 C-4.7525 8.824375 -4.7525 8.824375 -4.5 7.625 C-3.82086554 4.18082427 -3.82086554 4.18082427 -5 1 C-5.66 0.67 -6.32 0.34 -7 0 C-3.86650268 -1.04449911 -3.01031744 -0.93423645 0 0 Z " fill="#D3D1D1" transform="translate(65,109)"/>
<path d="M0 0 C0.89203125 0.01804687 1.7840625 0.03609375 2.703125 0.0546875 C3.71632813 0.08949219 3.71632813 0.08949219 4.75 0.125 C5.08 0.785 5.41 1.445 5.75 2.125 C4.533125 2.00125 3.31625 1.8775 2.0625 1.75 C-3.85095215 1.68408572 -8.36837519 4.24921457 -13.52734375 6.91015625 C-14.42582031 7.31105469 -15.32429688 7.71195312 -16.25 8.125 C-16.91 7.795 -17.57 7.465 -18.25 7.125 C-16.8339401 6.33224852 -15.41712447 5.54084688 -14 4.75 C-12.81664063 4.08871094 -12.81664063 4.08871094 -11.609375 3.4140625 C-10.83078125 2.98867187 -10.0521875 2.56328125 -9.25 2.125 C-8.6003125 1.7434375 -7.950625 1.361875 -7.28125 0.96875 C-4.73753854 -0.0878686 -2.74342202 -0.07219532 0 0 Z " fill="#D9D7D7" transform="translate(106.25,97.875)"/>
<path d="M0 0 C0.99 0.33 1.98 0.66 3 1 C0.46195322 2.46495337 -2.08009717 3.92204322 -4.625 5.375 C-5.33785156 5.7875 -6.05070312 6.2 -6.78515625 6.625 C-10.77580578 8.89491074 -14.55729762 10.72465011 -19 12 C-19 11.34 -19 10.68 -19 10 C-17.87980469 9.44570312 -16.75960937 8.89140625 -15.60546875 8.3203125 C-14.13275962 7.58864809 -12.66010628 6.85687139 -11.1875 6.125 C-10.44951172 5.76019531 -9.71152344 5.39539063 -8.95117188 5.01953125 C-8.23896484 4.66503906 -7.52675781 4.31054688 -6.79296875 3.9453125 C-6.1383667 3.62062988 -5.48376465 3.29594727 -4.80932617 2.96142578 C-2.75347202 1.90744328 -2.75347202 1.90744328 0 0 Z " fill="#EDEBEB" transform="translate(98,101)"/>
<path d="M0 0 C0.99 0 1.98 0 3 0 C5.27678571 8.03571429 5.27678571 8.03571429 4 12 C3.01 12 2.02 12 1 12 C0.01751476 7.9472484 -0.08159574 4.16138263 0 0 Z " fill="#535353" transform="translate(0,131)"/>
<path d="M0 0 C3.96 0 7.92 0 12 0 C12 0.66 12 1.32 12 2 C11.01 2.33 10.02 2.66 9 3 C8.67 3.66 8.34 4.32 8 5 C6.35 5 4.7 5 3 5 C2.67 4.01 2.34 3.02 2 2 C1.34 1.34 0.68 0.68 0 0 Z " fill="#060606" transform="translate(64,164)"/>
<path d="M0 0 C2.475 0.495 2.475 0.495 5 1 C5 1.66 5 2.32 5 3 C5.99 3 6.98 3 8 3 C7.67 3.99 7.34 4.98 7 6 C4.69 6 2.38 6 0 6 C0 4.02 0 2.04 0 0 Z " fill="#373737" transform="translate(120,164)"/>
<path d="M0 0 C0.33 0.99 0.66 1.98 1 3 C1.99 3.33 2.98 3.66 4 4 C2.75 6.5 2.75 6.5 1 9 C-0.32 9 -1.64 9 -3 9 C-3 8.01 -3 7.02 -3 6 C-2.34 6 -1.68 6 -1 6 C-1.0309375 4.7934375 -1.0309375 4.7934375 -1.0625 3.5625 C-1 1 -1 1 0 0 Z " fill="#1D1D1D" transform="translate(192,148)"/>
<path d="M0 0 C5.41390868 0.46671627 9.20517932 1.24297811 14 4 C14 4.33 14 4.66 14 5 C6.25 5.125 6.25 5.125 4 4 C4 3.34 4 2.68 4 2 C2.68 1.34 1.36 0.68 0 0 Z " fill="#C6C4C4" transform="translate(123,103)"/>
<path d="M0 0 C0.99 0 1.98 0 3 0 C4 1.66666667 5 3.33333333 6 5 C6.99 5 7.98 5 9 5 C7.84826645 7.46800047 6.95216435 9.04783565 5 11 C4.16151196 9.54462432 3.32936066 8.08559627 2.5 6.625 C1.80390625 5.40683594 1.80390625 5.40683594 1.09375 4.1640625 C0 2 0 2 0 0 Z " fill="#242424" transform="translate(188,9)"/>
<path d="M0 0 C0.73605469 0.08378906 1.47210938 0.16757813 2.23046875 0.25390625 C3.20628906 0.35574219 4.18210938 0.45757812 5.1875 0.5625 C6.15042969 0.66691406 7.11335937 0.77132812 8.10546875 0.87890625 C10.94233377 0.99758751 13.25423671 0.67765639 16 0 C16 0.66 16 1.32 16 2 C14.0625 3.8125 14.0625 3.8125 11 5 C6.76718439 4.24101237 3.06371229 3.06371229 0 0 Z " fill="#EDEAEA" transform="translate(136,111)"/>
<path d="M0 0 C1.98 0.66 3.96 1.32 6 2 C4.35 4.64 2.7 7.28 1 10 C0.11628411 6.46513644 0 3.6064757 0 0 Z " fill="#4D4D4D" transform="translate(1,20)"/>
<path d="M0 0 C3.3 0 6.6 0 10 0 C7 4 7 4 4 5 C4 4.34 4 3.68 4 3 C3.01 3 2.02 3 1 3 C0.67 2.01 0.34 1.02 0 0 Z " fill="#030303" transform="translate(124,164)"/>
<path d="M0 0 C0 2.64 0 5.28 0 8 C-1.98 8.99 -1.98 8.99 -4 10 C-4.33 8.68 -4.66 7.36 -5 6 C-4.34 6 -3.68 6 -3 6 C-3.33 4.68 -3.66 3.36 -4 2 C-1 0 -1 0 0 0 Z " fill="#030303" transform="translate(8,128)"/>
<path d="M0 0 C0.66 0.66 1.32 1.32 2 2 C1.69208308 3.671549 1.35613097 5.33805547 1 7 C1.36856864 9.23167185 1.36856864 9.23167185 2 11 C0.0625 10.375 0.0625 10.375 -2 9 C-2.9375 6.0625 -2.9375 6.0625 -3 3 C-1.5625 1.125 -1.5625 1.125 0 0 Z " fill="#4D4D4D" transform="translate(198,46)"/>
<path d="M0 0 C0 0.33 0 0.66 0 1 C-0.65226562 1.10957031 -1.30453125 1.21914062 -1.9765625 1.33203125 C-7.17125885 2.27443191 -11.29264632 3.52863932 -16 6 C-16.66 5.67 -17.32 5.34 -18 5 C-12.07748242 -0.26446007 -7.78812551 -0.63375343 0 0 Z " fill="#C4C2C2" transform="translate(109,97)"/>
<path d="M0 0 C0.99 0.33 1.98 0.66 3 1 C3 4.3 3 7.6 3 11 C2.34 11 1.68 11 1 11 C1 9.35 1 7.7 1 6 C0.34 5.67 -0.32 5.34 -1 5 C-0.67 3.35 -0.34 1.7 0 0 Z " fill="#000000" transform="translate(5,32)"/>
<path d="M0 0 C1.65 0.33 3.3 0.66 5 1 C5.33 2.32 5.66 3.64 6 5 C4.68 4.67 3.36 4.34 2 4 C1.67 4.99 1.34 5.98 1 7 C0.67 6.34 0.34 5.68 0 5 C0.33 4.34 0.66 3.68 1 3 C0.34 2.67 -0.32 2.34 -1 2 C-0.67 1.34 -0.34 0.68 0 0 Z " fill="#767676" transform="translate(2,148)"/>
<path d="M0 0 C0.33 1.65 0.66 3.3 1 5 C-2 5 -2 5 -4.1875 3 C-4.785625 2.34 -5.38375 1.68 -6 1 C-4 0 -4 0 0 0 Z " fill="#0F0F0F" transform="translate(89,164)"/>
<path d="M0 0 C0.78503906 0.08894531 1.57007812 0.17789063 2.37890625 0.26953125 C3.55259766 0.38361328 3.55259766 0.38361328 4.75 0.5 C7.28075558 1.17216146 8.28059694 2.10080857 9.94140625 4.08203125 C8.62140625 4.08203125 7.30140625 4.08203125 5.94140625 4.08203125 C5.94140625 3.42203125 5.94140625 2.76203125 5.94140625 2.08203125 C5.40515625 2.26765625 4.86890625 2.45328125 4.31640625 2.64453125 C1.32150011 3.19622449 -1.09605204 2.68800569 -4.05859375 2.08203125 C-2.05859375 0.08203125 -2.05859375 0.08203125 0 0 Z " fill="#EBE9E9" transform="translate(105.05859375,98.91796875)"/>
<path d="M0 0 C1.98 0.66 3.96 1.32 6 2 C5.67 3.32 5.34 4.64 5 6 C2 5 2 5 0 3 C0 2.01 0 1.02 0 0 Z " fill="#454545" transform="translate(62,164)"/>
<path d="M0 0 C0 3.99904969 -1.72586967 5.80200422 -4 9 C-6 6 -6 6 -6 4 C-4.36368108 2.95107762 -2.69514137 1.95093297 -1 1 C-0.67 0.67 -0.34 0.34 0 0 Z " fill="#4D4D4D" transform="translate(14,5)"/>
<path d="M0 0 C0.66 0.33 1.32 0.66 2 1 C2 1.66 2 2.32 2 3 C2.66 3.33 3.32 3.66 4 4 C3 5 3 5 0.4375 5.0625 C-0.7690625 5.0315625 -0.7690625 5.0315625 -2 5 C-1.34 4.67 -0.68 4.34 0 4 C0 2.68 0 1.36 0 0 Z M5 1 C5.66 1.33 6.32 1.66 7 2 C6.01 2 5.02 2 4 2 C4.33 1.67 4.66 1.34 5 1 Z " fill="#000000" transform="translate(110,164)"/>
<path d="" fill="#FFFFFF" transform="translate(0,0)"/>
<path d="" fill="#7F7F7F" transform="translate(0,0)"/>
<path d="" fill="#FFFFFF" transform="translate(0,0)"/>
<path d="M0 0 C2 1 2 1 2 1 Z " fill="#7F7F7F" transform="translate(4,157)"/>
<path d="" fill="#FFFFFF" transform="translate(0,0)"/>
<path d="" fill="#7F7F7F" transform="translate(0,0)"/>
<path d="M0 0 C2 1 2 1 2 1 Z " fill="#FFFFFF" transform="translate(178,0)"/>
<path d="" fill="#FFFFFF" transform="translate(0,0)"/>
<path d="" fill="#000000" transform="translate(0,0)"/>
<path d="" fill="#000000" transform="translate(0,0)"/>
<path d="" fill="#FFFFFF" transform="translate(0,0)"/>
<path d="" fill="#FFFFFF" transform="translate(0,0)"/>
<path d="" fill="#000000" transform="translate(0,0)"/>
<path d="" fill="#FFFFFF" transform="translate(0,0)"/>
<path d="" fill="#FFFFFF" transform="translate(0,0)"/>
<path d="" fill="#FFFFFF" transform="translate(0,0)"/>
<path d="" fill="#FFFFFF" transform="translate(0,0)"/>
<path d="" fill="#000000" transform="translate(0,0)"/>
<path d="" fill="#FFFFFF" transform="translate(0,0)"/>
<path d="" fill="#FFFFFF" transform="translate(0,0)"/>
<path d="" fill="#000000" transform="translate(0,0)"/>
<path d="" fill="#FFFFFF" transform="translate(0,0)"/>
<path d="" fill="#FFFFFF" transform="translate(0,0)"/>
<path d="" fill="#FFFFFF" transform="translate(0,0)"/>
<path d="" fill="#000000" transform="translate(0,0)"/>
<path d="" fill="#FFFFFF" transform="translate(0,0)"/>
<path d="" fill="#FFFFFF" transform="translate(0,0)"/>
<path d="" fill="#FFFFFF" transform="translate(0,0)"/>
<path d="" fill="#000000" transform="translate(0,0)"/>
<path d="" fill="#000000" transform="translate(0,0)"/>
<path d="" fill="#FFFFFF" transform="translate(0,0)"/>
<path d="" fill="#FFFFFF" transform="translate(0,0)"/>
<path d="" fill="#000000" transform="translate(0,0)"/>
<path d="" fill="#FFFFFF" transform="translate(0,0)"/>
<path d="" fill="#FFFFFF" transform="translate(0,0)"/>
<path d="" fill="#FFFFFF" transform="translate(0,0)"/>
<path d="" fill="#FFFFFF" transform="translate(0,0)"/>
<path d="" fill="#000000" transform="translate(0,0)"/>
<path d="" fill="#000000" transform="translate(0,0)"/>
<path d="" fill="#FFFFFF" transform="translate(0,0)"/>
<path d="" fill="#FFFFFF" transform="translate(0,0)"/>
<path d="" fill="#FFFFFF" transform="translate(0,0)"/>
</svg>
